<svg width="28" height="27" viewBox="0 0 28 27" fill="none" xmlns="http://www.w3.org/2000/svg">
<path d="M24 11.75C24 9.09784 22.9464 6.5543 21.0711 4.67893C19.1957 2.80357 16.6522 1.75 14 1.75C11.3478 1.75 8.8043 2.80357 6.92893 4.67893C5.05357 6.5543 4 9.09784 4 11.75" stroke="#444A6D" stroke-width="1.875" stroke-linecap="round" stroke-linejoin="round"/>
<path d="M1.5 17.2977V14.9527C1.50008 14.3952 1.6865 13.8537 2.02963 13.4143C2.37276 12.975 2.8529 12.6629 3.39375 12.5277L5.56875 11.9827C5.67927 11.9552 5.79461 11.9532 5.90601 11.9769C6.01742 12.0005 6.12196 12.0493 6.21172 12.1194C6.30147 12.1895 6.37408 12.2792 6.42403 12.3815C6.47398 12.4839 6.49996 12.5963 6.5 12.7102V19.5389C6.5002 19.6531 6.47434 19.7657 6.4244 19.8684C6.37446 19.971 6.30176 20.0609 6.21183 20.1312C6.12189 20.2015 6.01711 20.2503 5.90545 20.2739C5.79379 20.2976 5.67821 20.2955 5.5675 20.2677L3.3925 19.7239C2.85188 19.5885 2.37202 19.2763 2.02914 18.8369C1.68626 18.3976 1.50001 17.8563 1.5 17.2989V17.2977Z" stroke="#444A6D" stroke-width="1.875"/>
<path d="M26.5 17.2977V14.9527C26.4999 14.3952 26.3135 13.8537 25.9704 13.4143C25.6272 12.975 25.1471 12.6629 24.6063 12.5277L22.4313 11.9827C22.3207 11.9552 22.2054 11.9532 22.094 11.9769C21.9826 12.0005 21.878 12.0493 21.7883 12.1194C21.6985 12.1895 21.6259 12.2792 21.576 12.3815C21.526 12.4839 21.5 12.5963 21.5 12.7102V19.5389C21.4999 19.6529 21.5257 19.7655 21.5756 19.868C21.6254 19.9705 21.698 20.0603 21.7878 20.1306C21.8776 20.2008 21.9822 20.2497 22.0937 20.2734C22.2052 20.2972 22.3206 20.2952 22.4313 20.2677L24.6063 19.7239C25.1471 19.5887 25.6272 19.2767 25.9704 18.8373C26.3135 18.3979 26.4999 17.8564 26.5 17.2989V17.2977Z" stroke="#444A6D" stroke-width="1.875"/>
<path d="M24 20.5V21.125C24 21.788 23.7366 22.4239 23.2678 22.8928C22.7989 23.3616 22.163 23.625 21.5 23.625H17.125" stroke="#444A6D" stroke-width="1.875"/>
<path d="M15.875 25.5H12.125C11.6277 25.5 11.1508 25.3025 10.7992 24.9508C10.4475 24.5992 10.25 24.1223 10.25 23.625C10.25 23.1277 10.4475 22.6508 10.7992 22.2992C11.1508 21.9475 11.6277 21.75 12.125 21.75H15.875C16.3723 21.75 16.8492 21.9475 17.2008 22.2992C17.5525 22.6508 17.75 23.1277 17.75 23.625C17.75 24.1223 17.5525 24.5992 17.2008 24.9508C16.8492 25.3025 16.3723 25.5 15.875 25.5Z" stroke="#444A6D" stroke-width="1.875"/>
</svg>
