<svg width="22" height="23" viewBox="0 0 22 23" fill="none" xmlns="http://www.w3.org/2000/svg">
<path d="M9.49724 0.58217C9.91023 0.211121 10.4458 0.00585937 11.001 0.00585938C11.5562 0.00585937 12.0918 0.211121 12.5047 0.58217L20.7547 7.99517C20.9893 8.20611 21.1769 8.46402 21.3053 8.75215C21.4338 9.04029 21.5002 9.35221 21.5002 9.66767V20.2502C21.5002 20.8469 21.2632 21.4192 20.8412 21.8412C20.4193 22.2631 19.847 22.5002 19.2502 22.5002H15.5002C14.9035 22.5002 14.3312 22.2631 13.9093 21.8412C13.4873 21.4192 13.2502 20.8469 13.2502 20.2502V15.0002C13.2502 14.8013 13.1712 14.6105 13.0306 14.4698C12.8899 14.3292 12.6992 14.2502 12.5002 14.2502H9.50025C9.30133 14.2502 9.11057 14.3292 8.96991 14.4698C8.82926 14.6105 8.75025 14.8013 8.75025 15.0002V20.2502C8.75025 20.8469 8.51319 21.4192 8.09124 21.8412C7.66928 22.2631 7.09698 22.5002 6.50024 22.5002H2.75024C2.15351 22.5002 1.58121 22.2631 1.15925 21.8412C0.737297 21.4192 0.500244 20.8469 0.500244 20.2502V9.66767C0.500244 9.03017 0.770244 8.42267 1.24724 7.99517L9.49724 0.58217ZM11.5012 1.69817C11.3636 1.57463 11.1852 1.50629 11.0002 1.50629C10.8153 1.50629 10.6369 1.57463 10.4992 1.69817L2.24924 9.11117C2.17109 9.18133 2.10854 9.26711 2.06565 9.36298C2.02275 9.45884 2.00047 9.56265 2.00024 9.66767V20.2502C2.00024 20.4491 2.07926 20.6399 2.21991 20.7805C2.36057 20.9212 2.55133 21.0002 2.75024 21.0002H6.50024C6.69916 21.0002 6.88992 20.9212 7.03057 20.7805C7.17123 20.6399 7.25024 20.4491 7.25024 20.2502V15.0002C7.25024 14.4034 7.4873 13.8311 7.90925 13.4092C8.33121 12.9872 8.90351 12.7502 9.50025 12.7502H12.5002C13.097 12.7502 13.6693 12.9872 14.0912 13.4092C14.5132 13.8311 14.7502 14.4034 14.7502 15.0002V20.2502C14.7502 20.4491 14.8293 20.6399 14.9699 20.7805C15.1106 20.9212 15.3013 21.0002 15.5002 21.0002H19.2502C19.4492 21.0002 19.6399 20.9212 19.7806 20.7805C19.9212 20.6399 20.0002 20.4491 20.0002 20.2502V9.66767C20 9.56265 19.9777 9.45884 19.9348 9.36298C19.8919 9.26711 19.8294 9.18133 19.7512 9.11117L11.5012 1.69817Z" fill="#444A6D"/>
</svg>
