<svg width="25" height="28" viewBox="0 0 25 28" fill="none" xmlns="http://www.w3.org/2000/svg">
<path d="M21 14V6.18625C21.0001 6.08758 20.9807 5.98987 20.9429 5.8987C20.9052 5.80754 20.8498 5.72473 20.78 5.655L16.845 1.72C16.7045 1.57931 16.5138 1.50018 16.315 1.5H1.75C1.55109 1.5 1.36032 1.57902 1.21967 1.71967C1.07902 1.86032 1 2.05109 1 2.25V25.75C1 25.9489 1.07902 26.1397 1.21967 26.2803C1.36032 26.421 1.55109 26.5 1.75 26.5H9.75" stroke="#0077FF" stroke-width="1.875" stroke-linecap="round" stroke-linejoin="round"/>
<path d="M6 16.5H9.75M6 11.5H16H6ZM6 6.5H11H6Z" stroke="#0077FF" stroke-width="1.875" stroke-linecap="round" stroke-linejoin="round"/>
<path d="M21.625 24.625L23.5 26.5" stroke="#0077FF" stroke-width="1.875" stroke-linecap="round" stroke-linejoin="round"/>
<path d="M14.75 21.5C14.75 22.4946 15.1451 23.4484 15.8483 24.1517C16.5516 24.8549 17.5054 25.25 18.5 25.25C19.4946 25.25 20.4484 24.8549 21.1517 24.1517C21.8549 23.4484 22.25 22.4946 22.25 21.5C22.25 20.5054 21.8549 19.5516 21.1517 18.8483C20.4484 18.1451 19.4946 17.75 18.5 17.75C17.5054 17.75 16.5516 18.1451 15.8483 18.8483C15.1451 19.5516 14.75 20.5054 14.75 21.5Z" stroke="#0077FF" stroke-width="1.875" stroke-linecap="round" stroke-linejoin="round"/>
<path d="M16 5.75019V1.94269C16.0002 1.85528 16.0262 1.76989 16.0748 1.69726C16.1235 1.62464 16.1925 1.56804 16.2733 1.53462C16.354 1.50119 16.4429 1.49243 16.5286 1.50944C16.6143 1.52645 16.6931 1.56846 16.755 1.63019L20.87 5.74519C20.9323 5.80683 20.9749 5.88565 20.9923 5.97159C21.0096 6.05753 21.001 6.14669 20.9674 6.2277C20.9339 6.3087 20.877 6.37789 20.804 6.42642C20.731 6.47495 20.6452 6.50063 20.5575 6.50019H16.75C16.5511 6.50019 16.3603 6.42117 16.2197 6.28052C16.079 6.13987 16 5.9491 16 5.75019V5.75019Z" fill="#0077FF" stroke="#0077FF" stroke-width="1.875" stroke-linecap="round" stroke-linejoin="round"/>
</svg>
